<mxfile host="app.diagrams.net" modified="2021-11-07T06:27:28.719Z" agent="5.0 (Windows NT 10.0; Win64; x64) AppleWebKit/537.36 (KHTML, like Gecko) Chrome/95.0.4638.69 Safari/537.36" etag="XwhPejmdcYEVaZ_mUkLG" version="15.6.8" type="github">
  <diagram id="2lABe3dcU-PlNdnrQJJc" name="Page-1">
    <mxGraphModel dx="1108" dy="450" grid="1" gridSize="10" guides="1" tooltips="1" connect="1" arrows="1" fold="1" page="1" pageScale="1" pageWidth="827" pageHeight="1169" math="0" shadow="0">
      <root>
        <mxCell id="0" />
        <mxCell id="1" parent="0" />
        <mxCell id="b1I1z0MYqSrRsltL_HVE-4" style="edgeStyle=orthogonalEdgeStyle;rounded=0;orthogonalLoop=1;jettySize=auto;html=1;exitX=0.5;exitY=0.5;exitDx=0;exitDy=0;exitPerimeter=0;" edge="1" parent="1" source="0zyxR-kkjVK70GDUBhUi-1" target="0zyxR-kkjVK70GDUBhUi-9">
          <mxGeometry relative="1" as="geometry" />
        </mxCell>
        <mxCell id="0zyxR-kkjVK70GDUBhUi-1" value="User" style="shape=umlActor;verticalLabelPosition=bottom;verticalAlign=top;html=1;outlineConnect=0;" parent="1" vertex="1">
          <mxGeometry x="80" y="160" width="120" height="150" as="geometry" />
        </mxCell>
        <mxCell id="b1I1z0MYqSrRsltL_HVE-5" style="edgeStyle=orthogonalEdgeStyle;rounded=0;orthogonalLoop=1;jettySize=auto;html=1;exitX=0.5;exitY=0.5;exitDx=0;exitDy=0;exitPerimeter=0;entryX=0.005;entryY=0.521;entryDx=0;entryDy=0;entryPerimeter=0;" edge="1" parent="1" source="0zyxR-kkjVK70GDUBhUi-5" target="0zyxR-kkjVK70GDUBhUi-10">
          <mxGeometry relative="1" as="geometry" />
        </mxCell>
        <mxCell id="0zyxR-kkjVK70GDUBhUi-5" value="Admin" style="shape=umlActor;verticalLabelPosition=bottom;verticalAlign=top;html=1;outlineConnect=0;" parent="1" vertex="1">
          <mxGeometry x="80" y="620" width="120" height="150" as="geometry" />
        </mxCell>
        <mxCell id="0zyxR-kkjVK70GDUBhUi-9" value="&lt;span style=&quot;color: rgba(0 , 0 , 0 , 0) ; font-family: monospace ; font-size: 0px&quot;&gt;%3CmxGraphModel%3E%3Croot%3E%3CmxCell%20id%3D%220%22%2F%3E%3CmxCell%20id%3D%221%22%20parent%3D%220%22%2F%3E%3CmxCell%20id%3D%222%22%20value%3D%22%22%20style%3D%22ellipse%3BwhiteSpace%3Dwrap%3Bhtml%3D1%3B%22%20vertex%3D%221%22%20parent%3D%221%22%3E%3CmxGeometry%20x%3D%22354%22%20y%3D%2220%22%20width%3D%22120%22%20height%3D%2280%22%20as%3D%22geometry%22%2F%3E%3C%2FmxCell%3E%3C%2Froot%3E%3C%2FmxGraphModel%3E&lt;/span&gt;" style="whiteSpace=wrap;html=1;aspect=fixed;" parent="1" vertex="1">
          <mxGeometry x="320" y="40" width="450" height="450" as="geometry" />
        </mxCell>
        <mxCell id="0zyxR-kkjVK70GDUBhUi-10" value="" style="whiteSpace=wrap;html=1;aspect=fixed;" parent="1" vertex="1">
          <mxGeometry x="320" y="530" width="355" height="355" as="geometry" />
        </mxCell>
        <mxCell id="0zyxR-kkjVK70GDUBhUi-11" value="Xem sản phẩm" style="ellipse;whiteSpace=wrap;html=1;" parent="1" vertex="1">
          <mxGeometry x="340" y="60" width="120" height="80" as="geometry" />
        </mxCell>
        <mxCell id="0zyxR-kkjVK70GDUBhUi-12" value="Đăng nhập" style="ellipse;whiteSpace=wrap;html=1;" parent="1" vertex="1">
          <mxGeometry x="340" y="160" width="120" height="80" as="geometry" />
        </mxCell>
        <mxCell id="0zyxR-kkjVK70GDUBhUi-13" value="Mua hàng" style="ellipse;whiteSpace=wrap;html=1;" parent="1" vertex="1">
          <mxGeometry x="340" y="260" width="120" height="80" as="geometry" />
        </mxCell>
        <mxCell id="0zyxR-kkjVK70GDUBhUi-14" value="Quản lí tài khoản (user)" style="ellipse;whiteSpace=wrap;html=1;" parent="1" vertex="1">
          <mxGeometry x="340" y="360" width="120" height="80" as="geometry" />
        </mxCell>
        <mxCell id="0zyxR-kkjVK70GDUBhUi-15" value="Đăng ký" style="ellipse;whiteSpace=wrap;html=1;" parent="1" vertex="1">
          <mxGeometry x="490" y="160" width="120" height="80" as="geometry" />
        </mxCell>
        <mxCell id="0zyxR-kkjVK70GDUBhUi-16" value="Bình luận" style="ellipse;whiteSpace=wrap;html=1;" parent="1" vertex="1">
          <mxGeometry x="640" y="160" width="120" height="80" as="geometry" />
        </mxCell>
        <mxCell id="0zyxR-kkjVK70GDUBhUi-17" value="Tìm kiếm" style="ellipse;whiteSpace=wrap;html=1;" parent="1" vertex="1">
          <mxGeometry x="640" y="260" width="120" height="80" as="geometry" />
        </mxCell>
        <mxCell id="0zyxR-kkjVK70GDUBhUi-18" value="Lịch sử mua hàng" style="ellipse;whiteSpace=wrap;html=1;" parent="1" vertex="1">
          <mxGeometry x="640" y="360" width="120" height="80" as="geometry" />
        </mxCell>
        <mxCell id="0zyxR-kkjVK70GDUBhUi-19" value="Quản lí sản phẩm" style="ellipse;whiteSpace=wrap;html=1;" parent="1" vertex="1">
          <mxGeometry x="350" y="545" width="120" height="80" as="geometry" />
        </mxCell>
        <mxCell id="0zyxR-kkjVK70GDUBhUi-20" value="Quản lí đơn hàng" style="ellipse;whiteSpace=wrap;html=1;" parent="1" vertex="1">
          <mxGeometry x="354" y="655" width="120" height="80" as="geometry" />
        </mxCell>
        <mxCell id="0zyxR-kkjVK70GDUBhUi-21" value="Quản lí bình luận" style="ellipse;whiteSpace=wrap;html=1;" parent="1" vertex="1">
          <mxGeometry x="354" y="780" width="120" height="80" as="geometry" />
        </mxCell>
        <mxCell id="0zyxR-kkjVK70GDUBhUi-22" value="Quản lí khách hàng" style="ellipse;whiteSpace=wrap;html=1;" parent="1" vertex="1">
          <mxGeometry x="530" y="545" width="120" height="80" as="geometry" />
        </mxCell>
        <mxCell id="0zyxR-kkjVK70GDUBhUi-23" value="Tổng hợp&lt;br&gt;&amp;amp;&lt;br&gt;thống kê" style="ellipse;whiteSpace=wrap;html=1;" parent="1" vertex="1">
          <mxGeometry x="530" y="655" width="120" height="80" as="geometry" />
        </mxCell>
        <mxCell id="0zyxR-kkjVK70GDUBhUi-24" value="Quản lý danh mục" style="ellipse;whiteSpace=wrap;html=1;" parent="1" vertex="1">
          <mxGeometry x="530" y="780" width="120" height="80" as="geometry" />
        </mxCell>
        <mxCell id="b1I1z0MYqSrRsltL_HVE-1" value="Đặt hàng" style="ellipse;whiteSpace=wrap;html=1;" vertex="1" parent="1">
          <mxGeometry x="490" y="260" width="120" height="80" as="geometry" />
        </mxCell>
        <mxCell id="b1I1z0MYqSrRsltL_HVE-2" value="Xem đơn hàng" style="ellipse;whiteSpace=wrap;html=1;" vertex="1" parent="1">
          <mxGeometry x="500" y="360" width="120" height="80" as="geometry" />
        </mxCell>
        <mxCell id="b1I1z0MYqSrRsltL_HVE-3" value="Xem chi tiết sản phẩm" style="ellipse;whiteSpace=wrap;html=1;" vertex="1" parent="1">
          <mxGeometry x="490" y="60" width="120" height="80" as="geometry" />
        </mxCell>
        <mxCell id="b1I1z0MYqSrRsltL_HVE-6" value="Gửi phản hồi(Chatbox)" style="ellipse;whiteSpace=wrap;html=1;" vertex="1" parent="1">
          <mxGeometry x="630" y="60" width="120" height="80" as="geometry" />
        </mxCell>
      </root>
    </mxGraphModel>
  </diagram>
</mxfile>
